<?xml version="1.0" encoding="UTF-8"?>
<svg
    xmlns="http://www.w3.org/2000/svg"
    xmlns:xlink="http://www.w3.org/1999/xlink"
    width="517"
    height="517"
    viewBox="563 44 517 517">

    <path
        d="M1006.38 312.227 1005.91 321.488C996.417 414.981 917.475 487.939 821.494 487.939 751.109 487.939 689.885 448.703 658.493 390.907L654.504 382.623 699.893 382.623 700.718 383.98C726.892 422.732 771.219 448.208 821.494 448.208 881.822 448.208 933.588 411.52 955.697 359.236L959.376 347.381ZM1054.31 245.774 902.549 359.289 562.995 359.289ZM821.494 117.125C898.276 117.125 964.158 163.817 992.298 230.363L994.187 235.523 955.086 244.558 949.564 233.093C924.9 187.682 876.796 156.855 821.494 156.855 741.053 156.855 675.843 222.076 675.843 302.532L676.487 308.926 636.904 318.071 636.12 302.532C636.12 200.134 719.114 117.125 821.494 117.125Z"
        fill="currentColor"/>
</svg>
